<mxfile host="app.diagrams.net" modified="2023-11-21T19:20:58.913Z" agent="Mozilla/5.0 (X11; Linux x86_64) AppleWebKit/537.36 (KHTML, like Gecko) Chrome/119.0.0.0 Safari/537.36" etag="KUVbYRirFeE01QEzvSn5" version="22.1.3" type="github">
  <diagram name="Page-1" id="mIwydUWedp3B0BEat3HM">
    <mxGraphModel dx="717" dy="1480" grid="1" gridSize="10" guides="1" tooltips="1" connect="1" arrows="1" fold="1" page="1" pageScale="1" pageWidth="850" pageHeight="1100" math="0" shadow="0">
      <root>
        <mxCell id="0" />
        <mxCell id="1" parent="0" />
        <mxCell id="2cNyDp_IjL0tAH7w54ul-1" value="4" style="ellipse;whiteSpace=wrap;html=1;aspect=fixed;" vertex="1" parent="1">
          <mxGeometry x="140" y="160" width="30" height="30" as="geometry" />
        </mxCell>
        <mxCell id="2cNyDp_IjL0tAH7w54ul-2" value="7" style="ellipse;whiteSpace=wrap;html=1;aspect=fixed;" vertex="1" parent="1">
          <mxGeometry x="250" y="20" width="30" height="30" as="geometry" />
        </mxCell>
        <mxCell id="2cNyDp_IjL0tAH7w54ul-3" value="6" style="ellipse;whiteSpace=wrap;html=1;aspect=fixed;" vertex="1" parent="1">
          <mxGeometry x="250" y="70" width="30" height="30" as="geometry" />
        </mxCell>
        <mxCell id="2cNyDp_IjL0tAH7w54ul-4" value="5" style="ellipse;whiteSpace=wrap;html=1;aspect=fixed;" vertex="1" parent="1">
          <mxGeometry x="360" y="160" width="30" height="30" as="geometry" />
        </mxCell>
        <mxCell id="2cNyDp_IjL0tAH7w54ul-5" value="1" style="ellipse;whiteSpace=wrap;html=1;aspect=fixed;" vertex="1" parent="1">
          <mxGeometry x="210" y="160" width="30" height="30" as="geometry" />
        </mxCell>
        <mxCell id="2cNyDp_IjL0tAH7w54ul-6" value="2" style="ellipse;whiteSpace=wrap;html=1;aspect=fixed;" vertex="1" parent="1">
          <mxGeometry x="290" y="160" width="30" height="30" as="geometry" />
        </mxCell>
        <mxCell id="2cNyDp_IjL0tAH7w54ul-7" value="3" style="ellipse;whiteSpace=wrap;html=1;aspect=fixed;" vertex="1" parent="1">
          <mxGeometry x="250" y="200" width="30" height="30" as="geometry" />
        </mxCell>
        <mxCell id="2cNyDp_IjL0tAH7w54ul-8" value="0" style="ellipse;whiteSpace=wrap;html=1;aspect=fixed;" vertex="1" parent="1">
          <mxGeometry x="250" y="120" width="30" height="30" as="geometry" />
        </mxCell>
        <mxCell id="2cNyDp_IjL0tAH7w54ul-10" value="" style="endArrow=none;html=1;rounded=0;exitX=1;exitY=0.5;exitDx=0;exitDy=0;entryX=0;entryY=0.5;entryDx=0;entryDy=0;fillColor=#fa6800;strokeColor=#C73500;" edge="1" parent="1" source="2cNyDp_IjL0tAH7w54ul-1" target="2cNyDp_IjL0tAH7w54ul-5">
          <mxGeometry width="50" height="50" relative="1" as="geometry">
            <mxPoint x="280" y="180" as="sourcePoint" />
            <mxPoint x="330" y="130" as="targetPoint" />
          </mxGeometry>
        </mxCell>
        <mxCell id="2cNyDp_IjL0tAH7w54ul-11" value="" style="endArrow=none;html=1;rounded=0;exitX=1;exitY=0;exitDx=0;exitDy=0;entryX=0.008;entryY=0.804;entryDx=0;entryDy=0;entryPerimeter=0;" edge="1" parent="1" source="2cNyDp_IjL0tAH7w54ul-1" target="2cNyDp_IjL0tAH7w54ul-3">
          <mxGeometry width="50" height="50" relative="1" as="geometry">
            <mxPoint x="150" y="185" as="sourcePoint" />
            <mxPoint x="200" y="185" as="targetPoint" />
          </mxGeometry>
        </mxCell>
        <mxCell id="2cNyDp_IjL0tAH7w54ul-12" value="" style="endArrow=none;html=1;rounded=0;exitX=1;exitY=0.5;exitDx=0;exitDy=0;entryX=0;entryY=0.5;entryDx=0;entryDy=0;fillColor=#fa6800;strokeColor=#C73500;" edge="1" parent="1" source="2cNyDp_IjL0tAH7w54ul-6" target="2cNyDp_IjL0tAH7w54ul-4">
          <mxGeometry width="50" height="50" relative="1" as="geometry">
            <mxPoint x="320" y="220" as="sourcePoint" />
            <mxPoint x="370" y="220" as="targetPoint" />
          </mxGeometry>
        </mxCell>
        <mxCell id="2cNyDp_IjL0tAH7w54ul-13" value="" style="endArrow=none;html=1;rounded=0;exitX=0;exitY=0;exitDx=0;exitDy=0;entryX=1;entryY=1;entryDx=0;entryDy=0;" edge="1" parent="1" source="2cNyDp_IjL0tAH7w54ul-7" target="2cNyDp_IjL0tAH7w54ul-5">
          <mxGeometry width="50" height="50" relative="1" as="geometry">
            <mxPoint x="170" y="215" as="sourcePoint" />
            <mxPoint x="220" y="215" as="targetPoint" />
          </mxGeometry>
        </mxCell>
        <mxCell id="2cNyDp_IjL0tAH7w54ul-14" value="" style="endArrow=none;html=1;rounded=0;exitX=1;exitY=0;exitDx=0;exitDy=0;entryX=0;entryY=1;entryDx=0;entryDy=0;" edge="1" parent="1" source="2cNyDp_IjL0tAH7w54ul-7" target="2cNyDp_IjL0tAH7w54ul-6">
          <mxGeometry width="50" height="50" relative="1" as="geometry">
            <mxPoint x="180" y="225" as="sourcePoint" />
            <mxPoint x="230" y="225" as="targetPoint" />
          </mxGeometry>
        </mxCell>
        <mxCell id="2cNyDp_IjL0tAH7w54ul-15" value="" style="endArrow=none;html=1;rounded=0;exitX=1;exitY=1;exitDx=0;exitDy=0;entryX=0;entryY=0;entryDx=0;entryDy=0;" edge="1" parent="1" source="2cNyDp_IjL0tAH7w54ul-8" target="2cNyDp_IjL0tAH7w54ul-6">
          <mxGeometry width="50" height="50" relative="1" as="geometry">
            <mxPoint x="190" y="235" as="sourcePoint" />
            <mxPoint x="240" y="235" as="targetPoint" />
          </mxGeometry>
        </mxCell>
        <mxCell id="2cNyDp_IjL0tAH7w54ul-16" value="" style="endArrow=none;html=1;rounded=0;exitX=0;exitY=1;exitDx=0;exitDy=0;entryX=1;entryY=0;entryDx=0;entryDy=0;" edge="1" parent="1" source="2cNyDp_IjL0tAH7w54ul-8" target="2cNyDp_IjL0tAH7w54ul-5">
          <mxGeometry width="50" height="50" relative="1" as="geometry">
            <mxPoint x="200" y="245" as="sourcePoint" />
            <mxPoint x="250" y="245" as="targetPoint" />
          </mxGeometry>
        </mxCell>
        <mxCell id="2cNyDp_IjL0tAH7w54ul-17" value="" style="endArrow=none;html=1;rounded=0;exitX=0.5;exitY=1;exitDx=0;exitDy=0;" edge="1" parent="1" source="2cNyDp_IjL0tAH7w54ul-8" target="2cNyDp_IjL0tAH7w54ul-7">
          <mxGeometry width="50" height="50" relative="1" as="geometry">
            <mxPoint x="210" y="255" as="sourcePoint" />
            <mxPoint x="260" y="255" as="targetPoint" />
          </mxGeometry>
        </mxCell>
        <mxCell id="2cNyDp_IjL0tAH7w54ul-18" value="" style="endArrow=none;html=1;rounded=0;exitX=0.5;exitY=0;exitDx=0;exitDy=0;entryX=0;entryY=1;entryDx=0;entryDy=0;" edge="1" parent="1" source="2cNyDp_IjL0tAH7w54ul-1" target="2cNyDp_IjL0tAH7w54ul-2">
          <mxGeometry width="50" height="50" relative="1" as="geometry">
            <mxPoint x="110" y="120" as="sourcePoint" />
            <mxPoint x="224" y="30" as="targetPoint" />
          </mxGeometry>
        </mxCell>
        <mxCell id="2cNyDp_IjL0tAH7w54ul-19" value="" style="endArrow=none;html=1;rounded=0;exitX=1;exitY=1;exitDx=0;exitDy=0;entryX=0.5;entryY=0;entryDx=0;entryDy=0;" edge="1" parent="1" source="2cNyDp_IjL0tAH7w54ul-2" target="2cNyDp_IjL0tAH7w54ul-4">
          <mxGeometry width="50" height="50" relative="1" as="geometry">
            <mxPoint x="156" y="184" as="sourcePoint" />
            <mxPoint x="270" y="94" as="targetPoint" />
          </mxGeometry>
        </mxCell>
        <mxCell id="2cNyDp_IjL0tAH7w54ul-20" value="" style="endArrow=none;html=1;rounded=0;exitX=1;exitY=1;exitDx=0;exitDy=0;entryX=0;entryY=0;entryDx=0;entryDy=0;" edge="1" parent="1" source="2cNyDp_IjL0tAH7w54ul-3" target="2cNyDp_IjL0tAH7w54ul-4">
          <mxGeometry width="50" height="50" relative="1" as="geometry">
            <mxPoint x="166" y="194" as="sourcePoint" />
            <mxPoint x="280" y="104" as="targetPoint" />
          </mxGeometry>
        </mxCell>
        <mxCell id="2cNyDp_IjL0tAH7w54ul-21" value="" style="endArrow=none;html=1;rounded=0;exitX=0.5;exitY=0;exitDx=0;exitDy=0;entryX=0.5;entryY=1;entryDx=0;entryDy=0;" edge="1" parent="1" source="2cNyDp_IjL0tAH7w54ul-3" target="2cNyDp_IjL0tAH7w54ul-2">
          <mxGeometry width="50" height="50" relative="1" as="geometry">
            <mxPoint x="176" y="204" as="sourcePoint" />
            <mxPoint x="290" y="114" as="targetPoint" />
          </mxGeometry>
        </mxCell>
        <mxCell id="2cNyDp_IjL0tAH7w54ul-23" value="&lt;div&gt;Number of vertices: 8&lt;/div&gt;&lt;div&gt;Number of edges: 12&lt;/div&gt;&lt;div&gt;Enter edges (pairs of indices):&lt;/div&gt;&lt;div&gt;0 1&lt;/div&gt;&lt;div&gt;0 2&lt;/div&gt;&lt;div&gt;0 3&lt;/div&gt;&lt;div&gt;1 3&lt;/div&gt;&lt;div&gt;2 3&lt;/div&gt;&lt;div&gt;2 5&lt;/div&gt;&lt;div&gt;1 4&lt;/div&gt;&lt;div&gt;6 7&lt;/div&gt;&lt;div&gt;4 6&lt;/div&gt;&lt;div&gt;4 7&lt;/div&gt;&lt;div&gt;5 7&lt;/div&gt;&lt;div&gt;5 6&lt;/div&gt;&lt;div&gt;Number of components wanted: 2&lt;/div&gt;&lt;div&gt;Number of algorithm repetitions: 100&lt;/div&gt;" style="text;html=1;strokeColor=none;fillColor=none;align=center;verticalAlign=middle;whiteSpace=wrap;rounded=0;" vertex="1" parent="1">
          <mxGeometry x="410" y="-15" width="220" height="300" as="geometry" />
        </mxCell>
      </root>
    </mxGraphModel>
  </diagram>
</mxfile>
